<svg xmlns="http://www.w3.org/2000/svg" width="18" height="18" viewBox="0 0 18 18">
  <g id="그룹_14-2" data-name="그룹 14-2" transform="translate(-624.282 -471.782)">
    <path id="패스_34" data-name="패스 34" d="M632.257,473.035A1.265,1.265,0,0,0,631,471.782h-5.469a1.265,1.265,0,0,0-1.253,1.253V478.5a1.265,1.265,0,0,0,1.253,1.253H631a1.265,1.265,0,0,0,1.253-1.253Z" fill="#fff"/>
    <path id="패스_35" data-name="패스 35" d="M642.282,483.061a1.264,1.264,0,0,0-1.253-1.253h-5.468a1.265,1.265,0,0,0-1.254,1.253v5.468a1.265,1.265,0,0,0,1.254,1.253h5.468a1.264,1.264,0,0,0,1.253-1.253Z" fill="#fff"/>
    <path id="패스_36" data-name="패스 36" d="M625.535,481.808a1.264,1.264,0,0,0-1.253,1.253v5.468a1.264,1.264,0,0,0,1.253,1.253H631a1.264,1.264,0,0,0,1.253-1.253v-5.468A1.264,1.264,0,0,0,631,481.808Z" fill="#fff"/>
    <path id="패스_37" data-name="패스 37" d="M635.561,471.782a1.266,1.266,0,0,0-1.254,1.253V478.5a1.266,1.266,0,0,0,1.254,1.253h5.468a1.265,1.265,0,0,0,1.253-1.253v-5.469a1.265,1.265,0,0,0-1.253-1.253Z" fill="#fff"/>
  </g>
</svg>
