<svg id="comment" xmlns="http://www.w3.org/2000/svg" width="22" height="22" viewBox="0 0 22 22">
  <g id="comment-2" data-name="comment" transform="translate(1 2)">
    <path id="패스_49" data-name="패스 49" d="M97.427,436.759a4.113,4.113,0,1,0-3.988-4.111A4.056,4.056,0,0,0,97.427,436.759Zm.728-6.052a3.592,3.592,0,0,0,2.268,1.94h0a3,3,0,1,1-5.992,0A4.622,4.622,0,0,0,98.156,430.707Z" transform="translate(-90.951 -423.065)" fill="#910457"/>
    <path id="패스_50" data-name="패스 50" d="M92.265,463.323a4.549,4.549,0,0,1-5.856,0,6.258,6.258,0,0,0-3.549,5.6H95.813A6.258,6.258,0,0,0,92.265,463.323Z" transform="translate(-82.86 -449.922)" fill="#910457"/>
    <path id="패스_51" data-name="패스 51" d="M132.955,404.535h-2.73a3.422,3.422,0,0,0-3.474,3.367h0a3.41,3.41,0,0,0,3.226,3.355,2.608,2.608,0,0,1-1.361,1.752,4.356,4.356,0,0,0,3.148-1.74h1.19a3.422,3.422,0,0,0,3.474-3.367h0A3.422,3.422,0,0,0,132.955,404.535Z" transform="translate(-116.429 -404.535)" fill="#910457"/>
  </g>
  <rect id="사각형_809" data-name="사각형 809" width="22" height="22" fill="none"/>
</svg>
