<svg id="company" xmlns="http://www.w3.org/2000/svg" width="22" height="22" viewBox="0 0 22 22">
  <g id="그룹_2220" data-name="그룹 2220" transform="translate(-603.238 -217.808)">
    <path id="패스_625" data-name="패스 625" d="M622.48,223.515h-4.09l-1.356-2.332a.76.76,0,0,0-.657-.376H612.1a.758.758,0,0,0-.656.376l-1.357,2.332H606a.755.755,0,0,0-.759.752v4.17a.753.753,0,0,0,.55.724l8.241,2.341a.775.775,0,0,0,.418,0l8.242-2.341a.753.753,0,0,0,.549-.724v-4.17A.755.755,0,0,0,622.48,223.515Zm-10.643,0,.7-1.2h3.4l.7,1.2Z" fill="#910457"/>
    <path id="패스_626" data-name="패스 626" d="M615.247,233.125v.977a1.008,1.008,0,0,1-2.017,0v-.977l-7.655-2.174a1.562,1.562,0,0,1-.337-.141v7.3a.755.755,0,0,0,.759.752H622.48a.755.755,0,0,0,.758-.752v-7.3a1.536,1.536,0,0,1-.337.141Z" transform="translate(0 -1.053)" fill="#910457"/>
  </g>
  <rect id="사각형_808" data-name="사각형 808" width="22" height="22" fill="none"/>
</svg>
