<svg id="country" xmlns="http://www.w3.org/2000/svg" width="22" height="22" viewBox="0 0 22 22">
  <g id="그룹_2223" data-name="그룹 2223" transform="translate(-606.503 -327.12)">
    <path id="패스_635" data-name="패스 635" d="M617.5,329.12a9,9,0,1,0,9,9A9.01,9.01,0,0,0,617.5,329.12Zm-7.657,9a7.611,7.611,0,0,1,.413-2.459l1.5,1.5,1.914,1.914v1.914l1.915,1.914.957.957v1.848A7.665,7.665,0,0,1,609.846,338.12Zm13.714,4.663a4,4,0,0,0-2.229-.835v-.957a1.914,1.914,0,0,0-1.914-1.914h-3.828v-2.871a1.914,1.914,0,0,0,1.914-1.914v-.957h.957a1.914,1.914,0,0,0,1.914-1.914v-.394a7.632,7.632,0,0,1,3.186,11.756Z" fill="#910457"/>
  </g>
  <rect id="사각형_812" data-name="사각형 812" width="22" height="22" fill="none"/>
</svg>
