<svg xmlns="http://www.w3.org/2000/svg" width="22" height="22" viewBox="0 0 22 22">
  <g id="그룹_2305" data-name="그룹 2305" transform="translate(-442 -12446)">
    <g id="그룹_2248" data-name="그룹 2248" transform="translate(-104.171 12067.3)">
      <path id="패스_642" data-name="패스 642" d="M565.928,387.515l-2.952-2.363v-1.388a.658.658,0,0,0-.671-.646h-1.871L557.6,380.85a.69.69,0,0,0-.857,0l-2.835,2.268h-1.871a.658.658,0,0,0-.671.646v1.388l-2.952,2.363a.634.634,0,0,0-.242.5v10.043a.658.658,0,0,0,.67.646H565.5a.659.659,0,0,0,.671-.646V388.011A.635.635,0,0,0,565.928,387.515Zm-14.563,1.762-1.527-1.222,1.527-1.222Zm5.8-7.09,1.164.931h-2.327Zm4.465,8.164-4.464,3.572-4.465-3.572v-5.939h8.929Zm1.341-1.073v-2.444l1.527,1.222Z" fill="#910457"/>
      <path id="패스_643" data-name="패스 643" d="M554.725,387.332h4.892a.529.529,0,1,0,0-1.058h-4.892a.529.529,0,1,0,0,1.058Z" transform="translate(0 -0.293)" fill="#910457"/>
      <path id="패스_644" data-name="패스 644" d="M554.725,389.871h4.892a.529.529,0,1,0,0-1.058h-4.892a.529.529,0,1,0,0,1.058Z" transform="translate(0 -0.427)" fill="#910457"/>
    </g>
    <rect id="사각형_809" data-name="사각형 809" width="22" height="22" transform="translate(442 12446)" fill="none"/>
  </g>
</svg>
