<svg xmlns="http://www.w3.org/2000/svg" width="13" height="13" viewBox="0 0 13 13">
  <g id="그룹_2347" data-name="그룹 2347" transform="translate(-801 -363)">
    <g id="profile" transform="translate(803 364)">
      <path id="패스_636" data-name="패스 636" d="M524.987,336.658a2.86,2.86,0,1,0,2.859-2.942A2.9,2.9,0,0,0,524.987,336.658Zm3.381-1.388a2.572,2.572,0,0,0,1.626,1.388h0a2.15,2.15,0,1,1-4.3,0A3.314,3.314,0,0,0,528.368,335.269Z" transform="translate(-523.203 -333.716)" fill="#9c9c9c"/>
      <path id="패스_637" data-name="패스 637" d="M528.968,342.794a3.267,3.267,0,0,1-4.2,0,4.974,4.974,0,0,0-2.543,4.326h9.286A4.972,4.972,0,0,0,528.968,342.794Z" transform="translate(-522.226 -337.12)" fill="#9c9c9c"/>
    </g>
    <rect id="사각형_856" data-name="사각형 856" width="13" height="13" transform="translate(801 363)" fill="none"/>
  </g>
</svg>
