<svg id="invite" xmlns="http://www.w3.org/2000/svg" width="20" height="20" viewBox="0 0 20 20">
  <g id="그룹_2222" data-name="그룹 2222" transform="translate(0)">
    <path id="패스_633" data-name="패스 633" d="M618.542,335.367a3.156,3.156,0,1,0-3.3-3.152A3.233,3.233,0,0,0,618.542,335.367Zm.6-4.64a2.882,2.882,0,0,0,1.877,1.488h0a2.48,2.48,0,0,1-4.959,0A3.955,3.955,0,0,0,619.145,330.727Z" transform="translate(-609.298 -329.062)" fill="#910457"/>
    <path id="패스_634" data-name="패스 634" d="M627.816,337.335a2.191,2.191,0,0,0-3.072-.081l-2.295,2.148a4.819,4.819,0,0,0-2.625-3.652,3.371,3.371,0,0,1-4.405,0,4.816,4.816,0,0,0-2.636,3.76,7,7,0,0,0-4.267,3.307.73.73,0,0,0,.263,1.006.75.75,0,0,0,1.019-.259,5.64,5.64,0,0,1,5.5-2.813.742.742,0,0,0,.118.01h3.917a.8.8,0,1,1,0,1.6.752.752,0,0,0-.1.007l-3.449.462a.735.735,0,0,0,.1,1.464.752.752,0,0,0,.1-.006l3.4-.457a2.3,2.3,0,0,0,2.105-1.507l.019-.015,4.256-3.985a.691.691,0,0,1,.968.025.672.672,0,0,1-.025.956.77.77,0,0,0-.07.075l-3.957,4.895a7.353,7.353,0,0,1-3.535,1.9l-10.142,2.043a.734.734,0,0,0,.148,1.455.758.758,0,0,0,.149-.015l10.152-2.045.018,0a8.676,8.676,0,0,0,4.335-2.374l.021-.025,3.944-4.876a2.13,2.13,0,0,0,.042-3Z" transform="translate(-608.411 -329.67)" fill="#910457"/>
  </g>
  <rect id="사각형_811" data-name="사각형 811" width="20" height="20" fill="none"/>
</svg>
