<svg id="list" xmlns="http://www.w3.org/2000/svg" width="22" height="22" viewBox="0 0 22 22">
  <rect id="사각형_808" data-name="사각형 808" width="22" height="22" fill="none"/>
  <g id="그룹_13-2" data-name="그룹 13-2" transform="translate(-593.286 -466.569)">
    <g id="그룹_25" data-name="그룹 25" transform="translate(595.286 468.569)">
      <circle id="타원_4" data-name="타원 4" cx="2.392" cy="2.392" r="2.392" transform="translate(0 0)" fill="#fff"/>
      <path id="패스_31" data-name="패스 31" d="M613.947,471.012a1.887,1.887,0,0,1-1.709,1.937H603.7a1.885,1.885,0,0,1-1.707-1.937h0a1.884,1.884,0,0,1,1.707-1.937h8.539a1.806,1.806,0,0,1,1.711,1.9Z" transform="translate(-595.957 -468.619)" fill="#fff"/>
    </g>
    <g id="그룹_26" data-name="그룹 26" transform="translate(595.286 475.177)">
      <circle id="타원_5" data-name="타원 5" cx="2.392" cy="2.392" r="2.392" transform="translate(0 0)" fill="#fff"/>
      <path id="패스_32" data-name="패스 32" d="M613.947,478.353a1.885,1.885,0,0,1-1.709,1.937H603.7a1.883,1.883,0,0,1-1.707-1.937h0a1.882,1.882,0,0,1,1.707-1.936h8.539a1.742,1.742,0,0,1,1.719,1.766C613.957,478.239,613.952,478.3,613.947,478.353Z" transform="translate(-595.957 -475.962)" fill="#fff"/>
    </g>
    <g id="그룹_27" data-name="그룹 27" transform="translate(595.286 481.784)">
      <circle id="타원_6" data-name="타원 6" cx="2.392" cy="2.392" r="2.392" transform="translate(0 0)" fill="#fff"/>
      <path id="패스_33" data-name="패스 33" d="M613.946,485.7a1.886,1.886,0,0,1-1.709,1.937H603.7a1.884,1.884,0,0,1-1.707-1.937h0a1.81,1.81,0,0,1,1.678-1.936h8.568a1.742,1.742,0,0,1,1.719,1.767C613.956,485.582,613.951,485.639,613.946,485.7Z" transform="translate(-595.956 -483.304)" fill="#fff"/>
    </g>
  </g>
</svg>
