<svg xmlns="http://www.w3.org/2000/svg" width="22" height="22" viewBox="0 0 22 22">
  <g id="그룹_2304" data-name="그룹 2304" transform="translate(-442 -12416)">
    <rect id="사각형_809" data-name="사각형 809" width="22" height="22" transform="translate(442 12416)" fill="none"/>
    <g id="call" transform="translate(445 12419)">
      <path id="패스_55" data-name="패스 55" d="M977.427,759.244c-.983-.7-1.992-1.373-3.006-2.032-.752-.489-.936-.45-1.6.2a2.017,2.017,0,0,1-2.724.322,12.738,12.738,0,0,1-3.428-3.5c-.732-.934-.687-1.474.15-2.323a1.024,1.024,0,0,0,.144-1.512c-.808-1.076-1.591-2.172-2.418-3.234a1.249,1.249,0,0,0-1.871-.282,3.33,3.33,0,0,0-1.574,2.738,8.194,8.194,0,0,0,.861,3.766,17.134,17.134,0,0,0,8.348,8.258,10.012,10.012,0,0,0,2.931.884,5,5,0,0,0,4.231-1.287C978.309,760.521,978.317,759.881,977.427,759.244Z" transform="translate(-961.098 -746.588)" fill="#910457"/>
    </g>
  </g>
</svg>
