<svg id="place" xmlns="http://www.w3.org/2000/svg" width="22" height="22" viewBox="0 0 22 22">
  <rect id="사각형_809" data-name="사각형 809" width="22" height="22" fill="none"/>
  <g id="그룹_2312" data-name="그룹 2312" transform="translate(-599.536 -403.432)">
    <path id="패스_656" data-name="패스 656" d="M617.046,406.858a8.657,8.657,0,0,0-12.02,0,8.137,8.137,0,0,0,0,11.716l6.011,5.857,6.01-5.857A8.136,8.136,0,0,0,617.046,406.858Zm-9.7,9.546a5.216,5.216,0,1,1,7.376,0A5.215,5.215,0,0,1,607.348,416.4Z" fill="#910457"/>
    <path id="패스_657" data-name="패스 657" d="M610.256,415.6a.778.778,0,0,1-.543-.22l-2.084-2.031a.734.734,0,0,1,0-1.058.783.783,0,0,1,1.086,0l1.541,1.5,3.186-3.1a.781.781,0,0,1,1.086,0,.734.734,0,0,1,0,1.058l-3.729,3.634A.778.778,0,0,1,610.256,415.6Z" fill="#910457"/>
  </g>
</svg>
