<svg id="profile" xmlns="http://www.w3.org/2000/svg" width="13" height="14" viewBox="0 0 13 14">
  <path id="패스_636" data-name="패스 636" d="M524.987,337.834a4,4,0,1,0,4-4.118A4.067,4.067,0,0,0,524.987,337.834Zm4.734-1.943A3.6,3.6,0,0,0,532,337.834h0a3.01,3.01,0,1,1-6.014,0A4.642,4.642,0,0,0,529.721,335.89Z" transform="translate(-522.49 -333.716)" fill="#910457"/>
  <path id="패스_637" data-name="패스 637" d="M531.665,342.794a4.573,4.573,0,0,1-5.877,0,6.963,6.963,0,0,0-3.561,6.057h13A6.962,6.962,0,0,0,531.665,342.794Z" transform="translate(-522.226 -334.851)" fill="#910457"/>
</svg>
