<svg xmlns="http://www.w3.org/2000/svg" width="16.999" height="16.999" viewBox="0 0 16.999 16.999">
  <g id="search" transform="translate(0.5 0.5)">
    <path id="패스_10" data-name="패스 10" d="M1580.1,596.4l-1.959-1.959a7.394,7.394,0,1,0-2.174,2.174l1.959,1.959a1.537,1.537,0,0,0,2.174-2.174Zm-4.289-2.115a5.472,5.472,0,1,1,0-7.74A5.479,5.479,0,0,1,1575.814,594.288Z" transform="translate(-1564.555 -583.027)" fill="#910457" stroke="rgba(0,0,0,0)" stroke-width="1"/>
    <path id="패스_11" data-name="패스 11" d="M1580.885,594.945h0a4.419,4.419,0,0,0-4.412,4.412.6.6,0,0,0,.6.6h0a.6.6,0,0,0,.6-.6,3.22,3.22,0,0,1,3.215-3.215.6.6,0,1,0,0-1.2Z" transform="translate(-1573.414 -591.888)" fill="#910457" stroke="rgba(0,0,0,0)" stroke-width="1"/>
  </g>
</svg>
