<svg id="time" xmlns="http://www.w3.org/2000/svg" width="22" height="22" viewBox="0 0 22 22">
  <g id="그룹_2315" data-name="그룹 2315" transform="translate(-645 -12354)">
    <rect id="사각형_809" data-name="사각형 809" width="22" height="22" transform="translate(645 12354)" fill="none"/>
    <g id="그룹_2313" data-name="그룹 2313" transform="translate(15.021 11948.862)">
      <path id="패스_658" data-name="패스 658" d="M640.979,406.138a10,10,0,1,0,10,10A10,10,0,0,0,640.979,406.138Zm0,17.883a7.883,7.883,0,1,1,7.883-7.883A7.883,7.883,0,0,1,640.979,424.021Z" fill="#910457"/>
      <path id="패스_659" data-name="패스 659" d="M634.275,415.571a.567.567,0,1,0,.567.567A.568.568,0,0,0,634.275,415.571Z" fill="#910457"/>
      <circle id="타원_48" data-name="타원 48" cx="0.568" cy="0.568" r="0.568" transform="translate(647.115 415.571)" fill="#910457"/>
      <path id="패스_660" data-name="패스 660" d="M640.979,410a.568.568,0,1,0-.568-.567A.567.567,0,0,0,640.979,410Z" fill="#910457"/>
      <path id="패스_661" data-name="패스 661" d="M640.979,422.275a.568.568,0,1,0,.567.567A.567.567,0,0,0,640.979,422.275Z" fill="#910457"/>
      <path id="패스_662" data-name="패스 662" d="M642.072,416.429a1.169,1.169,0,0,0,.042-.291,1.131,1.131,0,0,0-.337-.806v-1.507a.8.8,0,1,0-1.6,0v1.507a1.134,1.134,0,0,0,.8,1.941,1.109,1.109,0,0,0,.29-.042l2.4,2.4a.567.567,0,0,0,.8-.8Z" fill="#910457"/>
    </g>
  </g>
</svg>
